<?xml version="1.0" encoding="utf-8"?>
<!-- Generator: Adobe Illustrator 19.0.0, SVG Export Plug-In . SVG Version: 6.00 Build 0)  -->
<svg version="1.1" id="Layer_1" xmlns="http://www.w3.org/2000/svg" xmlns:xlink="http://www.w3.org/1999/xlink" x="0px" y="0px"
	 viewBox="0 0 650 768" style="enable-background:new 0 0 650 768;" xml:space="preserve">
<style type="text/css">
	.st0{fill:#FFFFFF;}
</style>
<polyline id="XMLID_14_" class="st0" points="236.1,183.6 304.8,321.5 325.5,240.9 233.6,181.7 "/>
<polygon id="XMLID_13_" class="st0" points="343.9,317.5 325.1,241 414.6,183.8 "/>
<polygon id="XMLID_12_" class="st0" points="320.6,361.5 357.3,289.8 413.8,337.8 340.6,427 320.4,427 "/>
<polygon id="XMLID_11_" class="st0" points="103.2,329.9 205.4,211 285.6,355.3 287.9,427 217,427 "/>
<polyline id="XMLID_9_" class="st0" points="464.3,128.5 390,190 387.1,132 "/>
<polyline id="XMLID_8_" class="st0" points="420.4,222.3 471.9,277.7 473.6,179.2 "/>
<polygon id="XMLID_7_" class="st0" points="651.2,330 650.5,173.2 492.5,179.9 490.1,279 "/>
<g id="XMLID_6_">
	<polygon id="XMLID_5_" class="st0" points="41,69.6 228.3,-55.7 245.2,144.3 	"/>
	<polygon id="XMLID_4_" class="st0" points="6.8,118.2 -59.3,32.4 32.5,-29 228.3,-29 	"/>
</g>
<polyline id="XMLID_53_" class="st0" points="157.9,439.8 61.6,434.7 98.8,390.1 "/>
<polygon id="XMLID_54_" class="st0" points="490.8,512.4 430.2,382 498,429.8 498,429.8 "/>
<polygon id="XMLID_15_" class="st0" points="40.3,27.2 0,54.5 0,0 80.5,0 "/>
<polygon id="XMLID_1_" class="st0" points="274.8,667.2 247.9,542.1 116,517.1 148,581.9 "/>
<polyline id="XMLID_2_" class="st0" points="420.4,600.5 408.9,631.2 408.4,602.2 "/>
<g id="XMLID_3_">
	<polygon id="XMLID_16_" class="st0" points="279.4,708.1 594.3,548 508.1,642.1 	"/>
	<polygon id="XMLID_10_" class="st0" points="85.2,664 68.3,626.3 97.8,592.1 150.9,655.7 	"/>
</g>
<polygon id="XMLID_17_" class="st0" points="289.9,512.4 291.2,458.5 360.8,436.9 "/>
</svg>
